<mxfile host="app.diagrams.net" modified="2021-12-22T12:22:19.137Z" agent="5.0 (Macintosh; Intel Mac OS X 10_15_7) AppleWebKit/537.36 (KHTML, like Gecko) Chrome/96.0.4664.110 Safari/537.36" etag="UP9IBi2KC13Ci6w50dS8" version="15.3.6" type="github">
  <diagram id="oNKut5Gal6S-NqATHzcR" name="Page-1">
    <mxGraphModel dx="2066" dy="1129" grid="1" gridSize="10" guides="1" tooltips="1" connect="1" arrows="1" fold="1" page="1" pageScale="1" pageWidth="827" pageHeight="1169" math="0" shadow="0">
      <root>
        <mxCell id="0" />
        <mxCell id="1" parent="0" />
        <mxCell id="DrbRH4lsxAudHNbNnP8O-8" value="" style="edgeStyle=none;curved=1;rounded=0;orthogonalLoop=1;jettySize=auto;html=1;endArrow=open;startSize=14;endSize=14;sourcePerimeterSpacing=8;targetPerimeterSpacing=8;" edge="1" parent="1" source="DrbRH4lsxAudHNbNnP8O-1" target="DrbRH4lsxAudHNbNnP8O-7">
          <mxGeometry relative="1" as="geometry" />
        </mxCell>
        <mxCell id="DrbRH4lsxAudHNbNnP8O-1" value="佟丽娅，台长" style="ellipse;whiteSpace=wrap;html=1;hachureGap=4;pointerEvents=0;" vertex="1" parent="1">
          <mxGeometry x="360" y="160" width="120" height="80" as="geometry" />
        </mxCell>
        <mxCell id="DrbRH4lsxAudHNbNnP8O-3" value="新风险来的时候是zero-shot learning，&lt;br&gt;这个时候最好的办法就是人工设计关键词" style="text;html=1;align=center;verticalAlign=middle;resizable=0;points=[];autosize=1;strokeColor=none;fillColor=none;" vertex="1" parent="1">
          <mxGeometry x="90" y="185" width="230" height="30" as="geometry" />
        </mxCell>
        <mxCell id="DrbRH4lsxAudHNbNnP8O-4" value="佟丽娅，台长" style="ellipse;whiteSpace=wrap;html=1;hachureGap=4;pointerEvents=0;" vertex="1" parent="1">
          <mxGeometry x="360" y="500" width="120" height="80" as="geometry" />
        </mxCell>
        <mxCell id="DrbRH4lsxAudHNbNnP8O-6" value="样本积累，加入词图" style="text;html=1;align=center;verticalAlign=middle;resizable=0;points=[];autosize=1;strokeColor=none;fillColor=none;" vertex="1" parent="1">
          <mxGeometry x="145" y="280" width="120" height="20" as="geometry" />
        </mxCell>
        <mxCell id="DrbRH4lsxAudHNbNnP8O-9" style="edgeStyle=none;curved=1;rounded=0;orthogonalLoop=1;jettySize=auto;html=1;endArrow=open;startSize=14;endSize=14;sourcePerimeterSpacing=8;targetPerimeterSpacing=8;" edge="1" parent="1" source="DrbRH4lsxAudHNbNnP8O-7" target="DrbRH4lsxAudHNbNnP8O-4">
          <mxGeometry relative="1" as="geometry" />
        </mxCell>
        <mxCell id="DrbRH4lsxAudHNbNnP8O-11" value="" style="edgeStyle=none;curved=1;rounded=0;orthogonalLoop=1;jettySize=auto;html=1;endArrow=open;startSize=14;endSize=14;sourcePerimeterSpacing=8;targetPerimeterSpacing=8;" edge="1" parent="1" source="DrbRH4lsxAudHNbNnP8O-7" target="DrbRH4lsxAudHNbNnP8O-10">
          <mxGeometry relative="1" as="geometry" />
        </mxCell>
        <mxCell id="DrbRH4lsxAudHNbNnP8O-7" value="词图" style="ellipse;whiteSpace=wrap;html=1;hachureGap=4;pointerEvents=0;fillColor=#60a917;strokeColor=#2D7600;fontColor=#ffffff;" vertex="1" parent="1">
          <mxGeometry x="360" y="320" width="120" height="80" as="geometry" />
        </mxCell>
        <mxCell id="DrbRH4lsxAudHNbNnP8O-10" value="GNN" style="ellipse;whiteSpace=wrap;html=1;hachureGap=4;pointerEvents=0;fillColor=#60a917;strokeColor=#2D7600;fontColor=#ffffff;" vertex="1" parent="1">
          <mxGeometry x="560" y="320" width="120" height="80" as="geometry" />
        </mxCell>
      </root>
    </mxGraphModel>
  </diagram>
</mxfile>
